<svg xmlns="http://www.w3.org/2000/svg" width="223" height="20" viewBox="0 0 223 20" fill="none">
    <g clipPath="url(#clip0_1061_77876)">
    <path d="M27.3761 12.1164C29.6262 12.1164 31.5363 10.468 31.8856 8.23359C32.2373 5.98047 30.4852 4.01641 28.0009 4.01172H23.9986C23.8446 4.01172 23.7131 4.12422 23.689 4.27734L21.9026 15.6508C21.8746 15.8273 22.0107 15.9875 22.1889 15.9875H24.3075C24.4616 15.9875 24.5931 15.875 24.6172 15.7219L25.1416 12.382C25.1657 12.2289 25.2972 12.1164 25.4512 12.1164H27.3769H27.3761ZM29.1485 8.13359C29.0178 8.96641 28.3767 9.57969 27.1497 9.57969H25.5812L26.0565 6.55078H27.5971C28.8661 6.55078 29.2784 7.30234 29.1485 8.13359V8.13359Z" fill="#003087"/>
    <path d="M41.0628 7.597H39.0523C38.8983 7.597 38.7668 7.7095 38.7427 7.86263L38.6766 8.28138C38.6766 8.28138 37.1158 6.56888 34.3522 7.72513C32.7673 8.38841 32.0064 9.7595 31.6827 10.7587C31.6827 10.7587 30.6542 13.8079 32.979 15.4837C32.979 15.4837 35.1341 17.0962 37.5608 15.3837L37.5188 15.6509C37.4908 15.8275 37.627 15.9876 37.8051 15.9876H39.8156C39.9697 15.9876 40.1011 15.8751 40.1253 15.722L41.3483 7.93294C41.3764 7.75638 41.2402 7.59622 41.062 7.59622L41.0628 7.597ZM38.1078 11.9017C37.932 13.0189 37.0201 13.8415 35.8499 13.8415C35.6189 13.8415 35.4072 13.8095 35.2182 13.7486C34.3506 13.4689 33.8558 12.6322 33.9982 11.7251C34.174 10.6079 35.089 9.78528 36.2584 9.78528C36.4895 9.78528 36.7011 9.81731 36.8902 9.87825C37.7577 10.1579 38.2494 10.9947 38.107 11.9017H38.1078Z" fill="#003087"/>
    <path d="M56.3341 12.1164C58.5842 12.1164 60.4943 10.468 60.8436 8.23359C61.1953 5.98047 59.4432 4.01641 56.9589 4.01172H52.9566C52.8026 4.01172 52.6711 4.12422 52.647 4.27734L50.8606 15.6508C50.8326 15.8273 50.9687 15.9875 51.1469 15.9875H53.2655C53.4196 15.9875 53.5511 15.875 53.5752 15.7219L54.0996 12.382C54.1237 12.2289 54.2552 12.1164 54.4092 12.1164H56.3349H56.3341ZM58.1065 8.13359C57.9758 8.96641 57.3347 9.57969 56.1077 9.57969H54.5392L55.0146 6.55078H56.5551C57.8241 6.55078 58.2364 7.30234 58.1065 8.13359V8.13359Z" fill="#0070E0"/>
    <path d="M70.0203 7.597H68.0099C67.8558 7.597 67.7243 7.7095 67.7002 7.86263L67.6341 8.28138C67.6341 8.28138 66.0733 6.56888 63.3097 7.72513C61.7249 8.38841 60.9639 9.7595 60.6403 10.7587C60.6403 10.7587 59.6117 13.8079 61.9365 15.4837C61.9365 15.4837 64.0917 17.0962 66.5184 15.3837L66.4763 15.6509C66.4483 15.8275 66.5845 15.9876 66.7627 15.9876H68.7731C68.9272 15.9876 69.0587 15.8751 69.0828 15.722L70.3059 7.93294C70.3339 7.75638 70.1977 7.59622 70.0195 7.59622L70.0203 7.597ZM67.0653 11.9017C66.8895 13.0189 65.9776 13.8415 64.8074 13.8415C64.5764 13.8415 64.3647 13.8095 64.1757 13.7486C63.3082 13.4689 62.8133 12.6322 62.9557 11.7251C63.1315 10.6079 64.0465 9.78528 65.2159 9.78528C65.447 9.78528 65.6586 9.81731 65.8477 9.87825C66.7152 10.1579 67.2069 10.9947 67.0645 11.9017H67.0653Z" fill="#0070E0"/>
    <path d="M48.444 7.79063L46.0204 11.8992L44.7903 7.82109C44.7507 7.68828 44.6285 7.59766 44.4908 7.59766H42.3037C42.1442 7.59766 42.0314 7.75391 42.0804 7.90625L44.2846 14.7758L42.2913 18.0133C42.1948 18.1703 42.3068 18.3734 42.4912 18.3734H44.8471C44.9841 18.3734 45.1117 18.3016 45.1825 18.1836L51.3391 7.95625C51.434 7.79922 51.3212 7.59844 51.1384 7.59844H48.7825C48.644 7.59844 48.5164 7.67188 48.4456 7.79141L48.444 7.79063Z" fill="#003087"/>
    <path d="M72.2822 4.27734L70.4959 15.6508C70.4678 15.8273 70.604 15.9875 70.7822 15.9875H72.9C73.054 15.9875 73.1855 15.875 73.2097 15.7219L74.996 4.34844C75.024 4.17188 74.8879 4.01172 74.7097 4.01172H72.5919C72.4378 4.01172 72.3064 4.12422 72.2822 4.27734V4.27734Z" fill="#0070E0"/>
    <path d="M15.907 9.20625C15.4518 11.8125 13.3332 13.7836 10.5556 13.7836H8.79104C8.43081 13.7828 8.06902 14.118 8.00911 14.4867L7.23574 19.4109C7.19139 19.6906 7.06068 19.7844 6.77747 19.7844H3.94229C3.65598 19.7844 3.58751 19.6883 3.63263 19.4039L3.95396 16.0008L0.547703 15.8242C0.261384 15.8242 0.153237 15.6641 0.198363 15.3805L2.52159 0.580469C2.56594 0.3 2.73944 0.179688 3.02187 0.179688H8.91631C11.7538 0.179688 13.5488 2.09766 13.7689 4.58438C15.4596 5.73203 16.2486 7.25469 15.9078 9.20625H15.907Z" fill="#001C64"/>
    <path d="M4.81906 10.4875L3.9531 16.0008L3.41003 19.4594C3.36568 19.7438 3.58431 20.0008 3.87063 20.0008H6.86686C7.14929 20.0008 7.38971 19.7945 7.43405 19.5141L8.22377 14.4875C8.26811 14.207 8.50853 14.0008 8.79096 14.0008H10.5556C13.3339 14.0008 15.6914 11.9656 16.1224 9.20781C16.4282 7.25 15.4471 5.46875 13.7689 4.58594C13.765 4.79062 13.7471 4.99844 13.7144 5.20781C13.2834 7.96563 10.9259 10.0008 8.14752 10.0008H5.38703C5.1046 10.0008 4.86419 10.207 4.81984 10.4875H4.81906Z" fill="#0070E0"/>
    <path d="M3.95322 16H0.46682C0.180501 16 -0.0381279 15.743 0.00622037 15.4586L2.35746 0.486719C2.40181 0.20625 2.64222 0 2.92465 0H8.91634C11.7539 0 13.8172 2.07344 13.769 4.58438C13.0633 4.2125 12.2339 4 11.3252 4H6.32858C6.04615 4 5.80573 4.20625 5.76139 4.48672L4.81918 10.4867L3.95322 16V16Z" fill="#003087"/>
    </g>
    <path d="M83.75 14H84.87V12H85.9C87.25 12 88.14 11.39 88.14 10.11C88.14 9.01 87.51 8.19 86.02 8.19H83.75V14ZM84.87 11V9.19H85.95C86.65 9.19 86.96 9.54 86.96 10.08C86.96 10.64 86.65 11 85.89 11H84.87ZM89.2188 14H90.3388V12H91.0788L92.5088 14H93.8888L92.3488 11.89C93.2188 11.62 93.6688 11.01 93.6688 10.11C93.6688 9.01 93.0188 8.19 91.5388 8.19H89.2188V14ZM90.3388 11V9.19H91.4488C92.1488 9.19 92.4888 9.54 92.4888 10.08C92.4888 10.64 92.1588 11 91.3888 11H90.3388ZM94.9116 14H99.0116V13H96.0316V11.67H98.2916V10.67H96.0316V9.19H98.8316V8.19H94.9116V14ZM100.195 14H101.315V11.77H103.755V10.77H101.315V9.19H104.235V8.19H100.195V14ZM105.273 14H109.373V13H106.393V11.67H108.653V10.67H106.393V9.19H109.193V8.19H105.273V14ZM110.557 14H111.677V12H112.417L113.847 14H115.227L113.687 11.89C114.557 11.62 115.007 11.01 115.007 10.11C115.007 9.01 114.357 8.19 112.877 8.19H110.557V14ZM111.677 11V9.19H112.787C113.487 9.19 113.827 9.54 113.827 10.08C113.827 10.64 113.497 11 112.727 11H111.677ZM116.27 14H117.39V12H118.13L119.56 14H120.94L119.4 11.89C120.27 11.62 120.72 11.01 120.72 10.11C120.72 9.01 120.07 8.19 118.59 8.19H116.27V14ZM117.39 11V9.19H118.5C119.2 9.19 119.54 9.54 119.54 10.08C119.54 10.64 119.21 11 118.44 11H117.39ZM121.962 14H126.062V13H123.082V11.67H125.342V10.67H123.082V9.19H125.882V8.19H121.962V14ZM127.246 14H129.246C131.216 14 132.396 12.81 132.396 11.1C132.396 9.39 131.166 8.19 129.226 8.19H127.246V14ZM128.366 13V9.19H129.246C130.406 9.19 131.226 10 131.226 11.1C131.226 12.18 130.416 13 129.176 13H128.366ZM136.279 14H137.399V12H138.429C139.779 12 140.669 11.39 140.669 10.11C140.669 9.01 140.039 8.19 138.549 8.19H136.279V14ZM137.399 11V9.19H138.479C139.179 9.19 139.489 9.54 139.489 10.08C139.489 10.64 139.179 11 138.419 11H137.399ZM140.689 14H141.869L142.279 12.88H144.729L145.139 14H146.329L144.039 8.19H142.959L140.689 14ZM142.639 11.9L143.489 9.58H143.509L144.369 11.9H142.639ZM147.882 14H149.002V11.44L151.032 8.19H149.712L148.462 10.31H148.442L147.182 8.19H145.872L147.882 11.44V14ZM151.66 14H152.78V10.26H152.8L154.4 12.87H155.13L156.74 10.24L156.75 10.25V14H157.87V8.19H156.71L154.77 11.52H154.75L152.81 8.19H151.66V14ZM159.355 14H163.455V13H160.475V11.67H162.735V10.67H160.475V9.19H163.275V8.19H159.355V14ZM164.589 14H165.709V10.12L165.739 10.11L168.549 14H169.709V8.19H168.589V12.16L168.569 12.18L165.719 8.19H164.589V14ZM172.362 14H173.482V9.19H175.172V8.19H170.672V9.19H172.362V14ZM177.962 14.07C179.012 14.08 180.112 13.57 180.112 12.3C180.122 11.19 179.272 10.92 178.242 10.54C177.542 10.28 177.172 10.1 177.172 9.71C177.182 9.34 177.522 9.13 177.962 9.13C178.352 9.13 178.802 9.28 179.312 9.66L179.952 8.84C179.392 8.38 178.662 8.11 177.922 8.11C176.872 8.12 175.992 8.77 175.992 9.76C175.992 10.87 176.912 11.27 177.832 11.58C178.572 11.83 178.942 11.98 178.932 12.41C178.932 12.79 178.582 13.05 177.992 13.05C177.512 13.04 176.902 12.83 176.442 12.34L175.782 13.15C176.402 13.78 177.192 14.07 177.962 14.07ZM183.926 14H185.046V12H186.076C187.426 12 188.316 11.39 188.316 10.11C188.316 9.01 187.686 8.19 186.196 8.19H183.926V14ZM185.046 11V9.19H186.126C186.826 9.19 187.136 9.54 187.136 10.08C187.136 10.64 186.826 11 186.066 11H185.046ZM188.335 14H189.515L189.925 12.88H192.375L192.785 14H193.975L191.685 8.19H190.605L188.335 14ZM190.285 11.9L191.135 9.58H191.155L192.015 11.9H190.285ZM194.854 14H195.974V12H196.714L198.144 14H199.524L197.984 11.89C198.854 11.62 199.304 11.01 199.304 10.11C199.304 9.01 198.654 8.19 197.174 8.19H194.854V14ZM195.974 11V9.19H197.084C197.784 9.19 198.124 9.54 198.124 10.08C198.124 10.64 197.794 11 197.024 11H195.974ZM201.63 14H202.75V9.19H204.44V8.19H199.94V9.19H201.63V14ZM205.399 14H206.519V10.12L206.549 10.11L209.359 14H210.519V8.19H209.399V12.16L209.379 12.18L206.529 8.19H205.399V14ZM211.953 14H216.053V13H213.073V11.67H215.333V10.67H213.073V9.19H215.873V8.19H211.953V14ZM217.236 14H218.356V12H219.096L220.526 14H221.906L220.366 11.89C221.236 11.62 221.686 11.01 221.686 10.11C221.686 9.01 221.036 8.19 219.556 8.19H217.236V14ZM218.356 11V9.19H219.466C220.166 9.19 220.506 9.54 220.506 10.08C220.506 10.64 220.176 11 219.406 11H218.356Z" fill="#1F262D"/>
    <defs>
    <clipPath id="clip0_1061_77876">
    <rect width="75" height="20" fill="white"/>
    </clipPath>
    </defs>
</svg>